<svg version="1.1"
	 xmlns="http://www.w3.org/2000/svg" 
	 x="0px" y="0px" width="16px" height="20px" viewBox="0 0 432.6 48.1" style="enable-background:new 0 0 432.6 48.1; fill:black;"
	 xml:space="preserve" >
<defs>
</defs>
<polygon points="30.5,6.6 0,21.5 0,27.2 30.5,42.1 30.5,33.9 11,24.3 30.5,15 "/>
<path d="M53.4,20.7c-5.1-1.3-5.3-1.4-5.3-4.4c0-2.8,0.5-3.4,3.9-3.4c3.2,0,6.5,0.4,8.9,0.9l0.8-6.6c-1.9-0.5-4-0.8-6.1-0.9V0h-6.2
	v6.2c-6.9,0.6-9.1,3.8-9.1,9.9c0,7,1.2,9.3,9.1,10.9c4.9,1,5.1,1.5,5.1,4.5c0,3-0.8,3.9-4.5,3.9c-2.9,0-5.6-0.6-8.6-1.5l-1.4,6.3
	c2.6,1,5.2,1.5,7.9,1.7v6.1h6.2v-6.2c6.8-0.9,8.2-4.3,8.2-10.4C62.3,25,62.1,22.9,53.4,20.7z"/>
<polygon points="73.8,6.6 73.8,15.1 93.2,24.3 73.8,33.6 73.8,42.1 104.2,27.2 104.2,21.5 "/>

</svg>