<!-- Generator: Adobe Illustrator 22.0.0, SVG Export Plug-In  -->
<svg version="1.1"
	 xmlns="http://www.w3.org/2000/svg" 
	 x="0px" y="0px" width="432.6px" height="48.1px" viewBox="0 0 432.6 48.1" style="enable-background:new 0 0 432.6 48.1; fill:white;"
	 xml:space="preserve" >
<defs>
</defs>
<polygon points="30.5,6.6 0,21.5 0,27.2 30.5,42.1 30.5,33.9 11,24.3 30.5,15 "/>
<path d="M53.4,20.7c-5.1-1.3-5.3-1.4-5.3-4.4c0-2.8,0.5-3.4,3.9-3.4c3.2,0,6.5,0.4,8.9,0.9l0.8-6.6c-1.9-0.5-4-0.8-6.1-0.9V0h-6.2
	v6.2c-6.9,0.6-9.1,3.8-9.1,9.9c0,7,1.2,9.3,9.1,10.9c4.9,1,5.1,1.5,5.1,4.5c0,3-0.8,3.9-4.5,3.9c-2.9,0-5.6-0.6-8.6-1.5l-1.4,6.3
	c2.6,1,5.2,1.5,7.9,1.7v6.1h6.2v-6.2c6.8-0.9,8.2-4.3,8.2-10.4C62.3,25,62.1,22.9,53.4,20.7z"/>
<polygon points="73.8,6.6 73.8,15.1 93.2,24.3 73.8,33.6 73.8,42.1 104.2,27.2 104.2,21.5 "/>
<g>
	<path d="M138.1,28.8h-7.9v11.7H126V8.2h12.3c6.9,0,9.4,3,9.4,8v4.7c0,3.8-1.4,6.5-5.2,7.5l8.4,12.2h-4.8L138.1,28.8z M138.2,11.9
		h-8v13.2h8c4,0,5.3-1.1,5.3-4.3v-4.7C143.6,13,142.2,11.9,138.2,11.9z"/>
	<path d="M173.5,33c0,4.3-2.5,8.1-10.4,8.1c-7.8,0-10.4-3.7-10.4-8.1V22.9c0-4.3,2.5-8.1,10.4-8.1c7.8,0,10.4,3.7,10.4,8.1V33z
		 M163.1,18.4c-4.5,0-6.2,1.6-6.2,4.6v9.8c0,3,1.7,4.6,6.2,4.6c4.5,0,6.2-1.6,6.2-4.6V23C169.3,20,167.6,18.4,163.1,18.4z"/>
	<path d="M182.3,36.9h12.6v3.6h-16.7V15.3h4.1V36.9z"/>
	<path d="M202.5,36.9h12.6v3.6h-16.7V15.3h4.1V36.9z"/>
	<path d="M222.8,40.6h-4.1V15.3h4.1V40.6z"/>
	<path d="M232.6,20.3v20.3h-3.9V15.3h5.2l11.9,20.3V15.3h3.9v25.3h-5.2L232.6,20.3z"/>
	<path d="M258.5,33c0,3.1,1,4.4,5.5,4.4c1.9,0,3.7-0.2,5.2-0.5v-8.2h3.9v11c-2.8,0.9-6.8,1.3-9.2,1.3c-7.2,0-9.6-2.6-9.6-7.6v-11
		c0-5.4,2.8-7.6,10.1-7.6c2.6,0,5.5,0.2,7.9,0.8l-0.4,3.5c-2.7-0.4-5.6-0.6-7.8-0.6c-4.4,0-5.7,0.9-5.7,4.4V33z"/>
	<path d="M285.1,40.6V8.2h19.2v3.7h-15.1v10.8h14v3.7h-14v14.1H285.1z"/>
	<path d="M311.9,40.6h-4.1V15.3h4.1V40.6z"/>
	<path d="M321.6,20.3v20.3h-3.9V15.3h5.2l11.9,20.3V15.3h3.9v25.3h-5.2L321.6,20.3z"/>
	<path d="M365.7,40.6h-4.1l-2.1-5.6h-11.3l-2.1,5.6h-4.1l9.4-25.3h5.1L365.7,40.6z M353.7,18.3l-4.6,13.2h9.1L353.7,18.3z"/>
	<path d="M372.7,20.3v20.3h-3.9V15.3h5.2l11.9,20.3V15.3h3.9v25.3h-5.2L372.7,20.3z"/>
	<path d="M404.4,37.4c1.9,0,5-0.2,7.1-0.6l0.3,3.5c-2.7,0.6-5.3,0.8-7.5,0.8c-7.2,0-9.8-2.5-9.8-7.7V22.5c0-5.2,2.6-7.7,9.8-7.7
		c2.2,0,4.9,0.2,7.5,0.8l-0.3,3.5c-2.2-0.4-5.2-0.6-7.1-0.6c-4.1,0-5.7,1-5.7,4.4v10.3C398.7,36.5,400.3,37.4,404.4,37.4z"/>
	<path d="M415.8,15.3h16.8v3.6h-12.6V26h11.7v3.6h-11.7V37h12.7v3.6h-16.8V15.3z"/>
</g>
</svg>
